<?xml version="1.0" encoding="utf-8"?>
<!-- Generator: Adobe Illustrator 16.0.0, SVG Export Plug-In . SVG Version: 6.00 Build 0)  -->
<!DOCTYPE svg PUBLIC "-//W3C//DTD SVG 1.1//EN" "http://www.w3.org/Graphics/SVG/1.1/DTD/svg11.dtd">
<svg version="1.1" id="Calque_1" xmlns="http://www.w3.org/2000/svg" xmlns:xlink="http://www.w3.org/1999/xlink" x="0px" y="0px"
	 width="360px" height="318px" viewBox="0 0 360 318" enable-background="new 0 0 360 318" xml:space="preserve">
<rect y="258" fill="#2A5CA7" width="360" height="60"/>
<g>
	<path fill="#6ACABA" d="M109.717,293.808c0,0,1.703,1.873,4.488,1.873c2.088,0,3.744-1.297,3.744-3.312
		c0-4.777-8.592-3.457-8.592-8.713c0-2.232,1.992-4.347,5.039-4.347c2.735,0,4.272,1.562,4.272,1.562l-0.576,0.889
		c0,0-1.44-1.438-3.672-1.438c-2.496,0-3.983,1.68-3.983,3.311c0,4.441,8.592,3.072,8.592,8.689c0,2.424-1.871,4.369-4.873,4.369
		c-3.311,0-5.135-2.089-5.135-2.089L109.717,293.808z"/>
	<path fill="#6ACABA" d="M126.854,280.558h-6.266v-0.959h13.562v0.959h-6.267v15.842h-1.03V280.558L126.854,280.558z"/>
	<path fill="#6ACABA" d="M136.691,279.599h1.033v10.992c0,3.168,2.063,5.113,5.231,5.113s5.256-1.945,5.256-5.16v-10.945h1.033
		v11.041c0,3.695-2.568,6.05-6.267,6.05c-3.694,0-6.289-2.354-6.289-6.05v-11.041H136.691z"/>
	<path fill="#6ACABA" d="M154.188,279.599h5.281c4.992,0,8.377,3.072,8.377,8.4c0,5.354-3.385,8.4-8.377,8.4h-5.281V279.599z
		 M159.301,295.44c4.465,0,7.465-2.617,7.465-7.441c0-4.801-3-7.441-7.465-7.441h-4.08v14.884L159.301,295.44L159.301,295.44z"/>
	<path fill="#6ACABA" d="M171.971,279.599h1.033v16.801h-1.033V279.599z"/>
	<path fill="#6ACABA" d="M185.508,279.31c4.68,0,8.496,3.746,8.496,8.57c0,4.943-3.816,8.81-8.496,8.81s-8.496-3.865-8.496-8.81
		C177.012,283.056,180.828,279.31,185.508,279.31z M185.508,295.704c4.105,0,7.416-3.408,7.416-7.824
		c0-4.297-3.311-7.586-7.416-7.586c-4.104,0-7.416,3.289-7.416,7.586C178.092,292.296,181.404,295.704,185.508,295.704z"/>
	<path fill="#6ACABA" d="M213.012,281.063c0,0-0.336,1.584-0.647,2.663l-3.554,12.673h-1.297l-4.416-16.802h1.08l3.554,13.683
		c0.217,0.813,0.407,1.799,0.407,1.799h0.047c0.025,0,0.218-0.959,0.457-1.799l3.841-13.683h1.151l3.84,13.683
		c0.24,0.84,0.435,1.799,0.457,1.799h0.047c0,0,0.193-0.984,0.408-1.799l3.674-13.683h1.08l-4.537,16.802h-1.297l-3.551-12.673
		c-0.312-1.079-0.647-2.663-0.647-2.663h-0.05H213.012z"/>
	<path fill="#6ACABA" d="M226.713,279.599h9.193v0.959h-8.16v6.89h6.697v0.961h-6.697v7.033h8.617v0.959h-9.65V279.599z"/>
	<path fill="#6ACABA" d="M240.418,279.599h5.641c2.447,0,4.248,1.634,4.248,4.199c0,1.824-0.889,3.049-2.184,3.674v0.047
		c1.656,0.457,2.854,2.089,2.854,4.248c0,2.81-1.991,4.634-4.68,4.634h-5.881L240.418,279.599L240.418,279.599z M246.035,287.087
		c1.871,0,3.19-1.297,3.19-3.289c0-1.967-1.247-3.24-3.217-3.24h-4.561v6.529H246.035z M246.203,295.44
		c2.256,0,3.695-1.394,3.695-3.675c0-2.278-1.562-3.719-3.722-3.719h-4.729v7.394H246.203z"/>
</g>
<g>
	<g>
		<g>
			<path fill="#2A5CA7" d="M38.883,258.291c-0.673,0.019-1.393,0.125-2.047,0.325c-4.064,1.242-6.525,5.385-5.094,10.065
				c0.526,1.725,1.427,3.066,2.553,4.041c0.797,0.021,1.621-0.118,2.413-0.359c2.823-0.863,4.925-3.354,5.381-6.541l6.337-1.938
				l4.766,1.67c0.104,6.369-4.047,11.894-10.039,13.726c-3.34,1.021-6.273,0.901-9.076-0.013l-4.102-1.344
				c-4.395-1.442-7.611-4.451-9.043-9.135c-2.358-7.714,2.022-14.814,9.461-17.089c2.962-0.905,6.358-1.002,9.584,0.194l3.443,1.282
				c3.182,1.172,5.962,2.995,7.732,5.957l-6.336,1.938l-4.688-1.656C39.743,259.008,39.331,258.646,38.883,258.291z M38.172,277.149
				c5.819-1.778,9.805-6.728,9.723-12.539l-5.303,1.621c-0.457,3.189-2.695,5.721-5.727,6.646c-4.27,1.307-8.886-0.859-10.391-5.785
				c-1.506-4.924,1.109-9.302,5.379-10.606c3.031-0.927,6.301-0.08,8.463,2.31l5.304-1.622c-3.183-4.863-9.252-6.733-15.071-4.956
				c-7.129,2.182-11.366,9.011-9.103,16.414C23.709,276.035,31.043,279.329,38.172,277.149z"/>
			<path fill="#2A5CA7" d="M64.99,241.122c3.134-0.958,6.381-0.991,9.587,0.195l4.164,1.55c4.718,1.76,7.063,4.506,8.399,8.879
				c2.308,7.543-1.916,14.67-9.39,16.954c-3.41,1.043-6.586,0.998-9.51-0.066l-4.822-1.727c-3.53-1.274-6.586-4.426-7.894-8.696
				C53.202,250.601,57.448,243.429,64.99,241.122z M72.77,266.572c7.232-2.212,11.336-9.115,9.104-16.415
				c-2.231-7.301-9.494-10.729-16.726-8.521c-7.232,2.211-11.336,9.114-9.104,16.416C58.277,265.353,65.539,268.783,72.77,266.572z
				 M66.454,245.908c4.373-1.337,8.905,0.93,10.392,5.786c1.484,4.854-1.007,9.27-5.38,10.604c-4.374,1.338-8.907-0.93-10.392-5.785
				C59.588,251.66,62.08,247.246,66.454,245.908z M68.895,262.146c0.797,0.02,1.586-0.108,2.412-0.36
				c4.063-1.242,6.411-5.388,5.021-9.936c-0.537-1.756-1.527-3.146-2.768-4.122c-0.719-0.009-1.438,0.101-2.127,0.311
				c-4.134,1.264-6.504,5.454-5.095,10.066C66.857,259.793,67.768,261.172,68.895,262.146z"/>
			<path fill="#2A5CA7" d="M107.324,250.548l-3.973-2.892l3.567,11.676l-6.024,1.842l-4.688-1.655l-7.688-25.14l4.479-1.368
				l4.551,1.584l9.54,7.062l5.264-14.562l4.479-1.369l4.73,1.681l7.674,25.104l-6.025,1.845l-4.686-1.656l-1.821-5.957l-1.629,4.526
				l-3.065,0.938L107.324,250.548z M114.282,236.974l4.601,15.05l4.959-1.518l-7.369-24.105l-3.72,1.138l-5.854,16.325
				l-13.979-10.263l-3.719,1.138l7.368,24.105l4.959-1.516l-4.602-15.05l10.481,7.679l2.479-0.758L114.282,236.974z"/>
			<path fill="#2A5CA7" d="M128.698,222.097l5.991-1.832l4.729,1.681l7.677,25.104l-6.027,1.843l-4.687-1.653L128.698,222.097z
				 M129.372,222.455l7.371,24.105l4.959-1.518l-7.371-24.104L129.372,222.455z"/>
			<path fill="#2A5CA7" d="M155.49,216.88l9.856,7.116l-3.664-11.983l5.991-1.832l4.729,1.68l7.677,25.104l-4.442,1.358
				l-4.686-1.655l-9.622-6.962l3.632,11.881l-6.024,1.843l-4.688-1.653l-7.688-25.142l4.408-1.348L155.49,216.88z M154.609,241.099
				l4.959-1.517l-4.633-15.151l16.101,11.646l3.651-1.115l-7.371-24.105l-4.959,1.517l4.623,15.118l-16.09-11.612l-3.649,1.116
				L154.609,241.099z"/>
			<path fill="#2A5CA7" d="M208.152,211.136l4.828,1.688c2.342,7.906-1.273,14.924-9.266,17.367c-3.34,1.021-6.273,0.9-9.077-0.013
				l-4.103-1.345c-4.396-1.442-7.61-4.45-9.042-9.134c-2.359-7.715,2.021-14.814,9.46-17.09c2.963-0.905,6.357-1.002,9.586,0.195
				l3.439,1.28c3.186,1.175,5.964,2.997,7.734,5.957L208.152,211.136z M182.012,219.542c2.265,7.402,9.597,10.698,16.726,8.52
				c7.748-2.368,11.298-8.989,9.103-16.416l-13.152,4.022l1.229,4.028l7.129-2.181c-0.403,2.985-2.342,5.271-5.612,6.271
				c-4.579,1.399-8.886-0.859-10.392-5.784s1.108-9.303,5.379-10.607c3.031-0.927,6.301-0.08,8.463,2.31l5.307-1.621
				c-3.184-4.862-9.252-6.735-15.072-4.957C183.984,205.308,179.747,212.14,182.012,219.542z M194.01,215.31l11.14-3.406
				l-4.453-1.574c-0.39-0.408-0.802-0.771-1.248-1.125c-0.672,0.02-1.394,0.125-2.047,0.324c-4.063,1.242-6.524,5.385-5.095,10.066
				c0.518,1.688,1.357,3.088,2.449,4.071c0.797,0.021,1.654-0.129,2.517-0.394c1.138-0.349,1.954-0.748,2.663-1.268l-4.379-1.636
				L194.01,215.31z"/>
			<path fill="#2A5CA7" d="M232.674,204.562c-1.11-0.377-2-0.877-2.695-1.492c-1.159-1.021-1.977-2.276-2.477-3.913
				c-1.307-4.271,0.924-8.001,5.898-9.522c2.325-0.711,4.254-0.621,6.229,0.055l3.705,1.275c2.185,0.745,4.233,2.396,5.213,5.6
				l-5.871,1.795l-3.854-1.344c-0.572,0.478-0.76,1.211-0.529,1.969l0.08,0.26c2.049,0.238,3.988,0.605,5.229,1.094l4.072,1.561
				c2.691,1.041,4.076,2.613,4.851,5.146c1.386,4.526-0.896,8.464-6.024,10.033c-2.17,0.662-4.201,0.794-6.388,0.05l-3.09-1.051
				c-3.677-1.248-5.255-3.025-6.312-5.811l6.062-1.853l4.094,1.44c0.869-0.359,1.221-1.43,0.92-2.408
				c-0.047-0.156-0.182-0.473-0.281-0.611c-1.582-0.062-3.207-0.395-4.846-0.947L232.674,204.562z M247.238,205.455
				c-1.033-3.375-3.244-5.07-8.697-5.663c-3.816-0.414-5.074-0.953-5.516-2.398c-0.369-1.205,0.116-2.445,1.771-2.951
				c1.617-0.494,2.888,0.209,3.34,1.689l5.027-1.537c-1.283-4.201-5.302-5.761-9.604-4.443c-4.647,1.423-6.752,4.89-5.541,8.85
				c1.08,3.53,3.479,5.282,8.89,5.793c3.682,0.344,4.92,0.941,5.395,2.493c0.474,1.55-0.323,2.885-2.012,3.399
				c-1.688,0.518-3.145,0.06-3.844-1.61l-5.027,1.537c1.455,3.772,5.252,5.852,10.107,4.367
				C246.383,213.493,248.537,209.709,247.238,205.455z"/>
			<path fill="#2A5CA7" d="M263.836,180.329c3.135-0.958,6.383-0.991,9.588,0.193l4.164,1.552c4.717,1.759,7.062,4.506,8.4,8.879
				c2.305,7.542-1.916,14.669-9.392,16.954c-3.407,1.042-6.584,0.996-9.511-0.067l-4.819-1.728
				c-3.532-1.272-6.586-4.426-7.894-8.694C252.049,189.808,256.295,182.636,263.836,180.329z M271.617,205.778
				c7.231-2.211,11.334-9.114,9.102-16.416c-2.231-7.301-9.492-10.729-16.725-8.519c-7.23,2.212-11.334,9.113-9.103,16.414
				C257.124,204.56,264.387,207.989,271.617,205.778z M265.299,185.115c4.375-1.339,8.908,0.93,10.396,5.784
				c1.483,4.854-1.009,9.271-5.384,10.606c-4.372,1.339-8.905-0.93-10.391-5.784C258.436,190.867,260.926,186.452,265.299,185.115z
				 M267.742,201.353c0.795,0.021,1.584-0.106,2.412-0.359c4.062-1.242,6.41-5.389,5.021-9.934
				c-0.536-1.756-1.525-3.146-2.768-4.125c-0.718-0.006-1.438,0.102-2.128,0.312c-4.133,1.264-6.504,5.453-5.095,10.066
				C265.705,199,266.615,200.378,267.742,201.353z"/>
			<path fill="#2A5CA7" d="M298.951,169.593c3.135-0.958,6.381-0.99,9.588,0.195l4.162,1.551c4.719,1.76,7.064,4.506,8.4,8.878
				c2.309,7.544-1.915,14.671-9.391,16.954c-3.408,1.043-6.584,0.998-9.51-0.066l-4.82-1.727c-3.532-1.273-6.586-4.426-7.894-8.695
				C287.164,179.071,291.41,171.897,298.951,169.593z M306.732,195.043c7.23-2.211,11.334-9.114,9.102-16.415
				s-9.492-10.729-16.725-8.52c-7.233,2.211-11.334,9.115-9.104,16.416C292.238,193.824,299.5,197.254,306.732,195.043z
				 M300.414,174.379c4.373-1.337,8.908,0.931,10.395,5.786c1.484,4.855-1.01,9.27-5.383,10.605
				c-4.373,1.338-8.906-0.931-10.391-5.785C293.55,180.131,296.041,175.717,300.414,174.379z M302.855,190.616
				c0.797,0.02,1.586-0.108,2.413-0.36c4.062-1.241,6.411-5.388,5.021-9.934c-0.537-1.757-1.527-3.146-2.768-4.124
				c-0.719-0.008-1.438,0.101-2.129,0.311c-4.133,1.264-6.504,5.454-5.094,10.067C300.818,188.265,301.729,189.644,302.855,190.616z
				"/>
			<path fill="#2A5CA7" d="M331.408,163.097l9.855,7.116l-3.664-11.983l5.992-1.832l4.73,1.681l7.677,25.104l-4.443,1.357
				l-4.686-1.656l-9.621-6.961l3.631,11.883l-6.023,1.842l-4.688-1.655l-7.686-25.14l4.406-1.349L331.408,163.097z M330.527,187.313
				l4.959-1.517l-4.631-15.151l16.098,11.646l3.652-1.116l-7.371-24.105l-4.959,1.517l4.623,15.119l-16.092-11.613l-3.648,1.117
				L330.527,187.313z"/>
		</g>
		<g>
			<path fill="#FFE8B0" d="M25.848,250.519c5.819-1.777,11.89,0.095,15.071,4.957l-5.303,1.621c-2.162-2.39-5.433-3.233-8.464-2.309
				c-4.27,1.307-6.885,5.684-5.379,10.607c1.505,4.924,6.121,7.09,10.391,5.784c3.031-0.928,5.27-3.457,5.727-6.646l5.303-1.622
				c0.082,5.812-3.901,10.759-9.721,12.538c-7.129,2.18-14.463-1.114-16.726-8.519C14.482,259.528,18.719,252.698,25.848,250.519z"
				/>
			<path fill="#FFE8B0" d="M60.447,239.94c7.229-2.211,14.492,1.218,16.726,8.519c2.231,7.3-1.871,14.204-9.104,16.415
				c-7.229,2.211-14.491-1.219-16.725-8.52C49.111,249.056,53.214,242.151,60.447,239.94z M66.764,260.603
				c4.373-1.336,6.864-5.75,5.381-10.604c-1.484-4.855-6.02-7.123-10.393-5.786c-4.374,1.337-6.865,5.752-5.38,10.608
				C57.857,259.674,62.391,261.938,66.764,260.603z"/>
			<path fill="#FFE8B0" d="M105.184,247.501l-2.479,0.76l-10.48-7.68l4.602,15.049l-4.959,1.517l-7.369-24.105l3.719-1.137
				l13.981,10.261l5.854-16.325l3.72-1.137l7.371,24.104l-4.959,1.518l-4.603-15.048L105.184,247.501z"/>
			<path fill="#FFE8B0" d="M129.629,219.24L137,243.346l-4.959,1.519l-7.371-24.106L129.629,219.24z"/>
			<path fill="#FFE8B0" d="M142.54,215.294l3.649-1.115l16.09,11.612l-4.622-15.119l4.959-1.516l7.37,24.104l-3.651,1.116
				l-16.101-11.646l4.634,15.15l-4.959,1.518L142.54,215.294z"/>
			<path fill="#FFE8B0" d="M186.412,201.431c5.82-1.779,11.891,0.092,15.072,4.955l-5.306,1.621
				c-2.162-2.39-5.433-3.234-8.464-2.308c-4.269,1.305-6.884,5.683-5.38,10.605c1.506,4.925,5.812,7.187,10.393,5.785
				c3.271-1,5.21-3.287,5.612-6.272l-7.129,2.181l-1.229-4.028l13.153-4.021c2.194,7.425-1.354,14.046-9.103,16.414
				c-7.404,2.265-14.462-1.113-16.727-8.519C175.044,210.438,179.284,203.608,186.412,201.431z"/>
			<path fill="#FFE8B0" d="M226.717,208.914l5.027-1.537c0.699,1.669,2.156,2.127,3.844,1.61c1.688-0.516,2.484-1.852,2.012-3.4
				c-0.475-1.55-1.713-2.15-5.395-2.492c-5.41-0.512-7.809-2.265-8.889-5.794c-1.211-3.96,0.893-7.428,5.541-8.849
				c4.305-1.316,8.321,0.242,9.604,4.443l-5.026,1.537c-0.452-1.479-1.724-2.187-3.34-1.69c-1.653,0.506-2.142,1.747-1.771,2.952
				c0.44,1.445,1.699,1.984,5.516,2.397c5.453,0.595,7.664,2.289,8.697,5.664c1.299,4.252-0.855,8.037-5.713,9.521
				C231.969,214.765,228.172,212.687,226.717,208.914z"/>
			<path fill="#FFE8B0" d="M259.293,179.147c7.232-2.213,14.492,1.217,16.725,8.518c2.233,7.301-1.868,14.204-9.102,16.415
				c-7.23,2.211-14.492-1.22-16.725-8.519C247.959,188.261,252.062,181.356,259.293,179.147z M265.609,199.81
				c4.375-1.336,6.866-5.752,5.383-10.605c-1.486-4.854-6.021-7.122-10.396-5.785c-4.373,1.337-6.862,5.751-5.38,10.605
				C256.703,198.88,261.236,201.146,265.609,199.81z"/>
			<path fill="#FFE8B0" d="M294.408,168.411c7.231-2.211,14.492,1.218,16.725,8.52c2.233,7.301-1.869,14.203-9.102,16.414
				c-7.233,2.211-14.494-1.219-16.726-8.519C283.074,177.524,287.176,170.623,294.408,168.411z M300.725,189.073
				c4.373-1.338,6.867-5.751,5.385-10.606c-1.486-4.856-6.021-7.122-10.396-5.786c-4.374,1.338-6.863,5.752-5.379,10.608
				S296.352,190.41,300.725,189.073z"/>
			<path fill="#FFE8B0" d="M318.457,161.51l3.65-1.114l16.09,11.611l-4.623-15.117l4.959-1.518l7.371,24.105l-3.652,1.116
				l-16.098-11.646l4.631,15.152l-4.959,1.517L318.457,161.51z"/>
		</g>
		<g>
			<path fill="#2A5CA7" d="M34.182,256.595c-0.673,0.019-1.393,0.123-2.047,0.323c-4.064,1.242-6.525,5.386-5.094,10.067
				c0.526,1.723,1.427,3.063,2.553,4.039c0.797,0.021,1.621-0.118,2.413-0.36c2.823-0.863,4.925-3.353,5.382-6.54l6.336-1.938
				l4.767,1.668c0.103,6.37-4.048,11.894-10.038,13.726c-3.34,1.021-6.275,0.901-9.078-0.011l-4.102-1.347
				c-4.395-1.441-7.611-4.448-9.043-9.134c-2.358-7.714,2.022-14.812,9.461-17.089c2.962-0.904,6.358-1.002,9.586,0.195l3.444,1.28
				c3.182,1.175,5.963,2.996,7.731,5.957l-6.336,1.938l-4.686-1.655C35.042,257.31,34.629,256.947,34.182,256.595z M33.471,275.451
				c5.819-1.779,9.804-6.727,9.722-12.538l-5.303,1.622c-0.457,3.188-2.696,5.719-5.728,6.646c-4.27,1.308-8.886-0.858-10.391-5.784
				c-1.506-4.925,1.109-9.302,5.379-10.606c3.031-0.927,6.302-0.081,8.464,2.308l5.303-1.62c-3.184-4.862-9.252-6.734-15.071-4.955
				c-7.129,2.18-11.366,9.011-9.103,16.414C19.008,274.337,26.342,277.631,33.471,275.451z"/>
			<path fill="#2A5CA7" d="M60.289,239.424c3.134-0.958,6.381-0.989,9.587,0.195l4.164,1.551c4.718,1.759,7.063,4.506,8.399,8.879
				c2.308,7.541-1.916,14.669-9.39,16.953c-3.409,1.043-6.586,0.998-9.51-0.065l-4.822-1.728c-3.53-1.272-6.586-4.426-7.892-8.694
				C48.5,248.901,52.747,241.729,60.289,239.424z M68.068,264.874c7.231-2.211,11.336-9.115,9.104-16.415
				c-2.23-7.301-9.492-10.729-16.727-8.519c-7.232,2.21-11.336,9.112-9.104,16.414C53.574,263.655,60.837,267.085,68.068,264.874z
				 M61.752,244.21c4.373-1.337,8.906,0.932,10.393,5.786c1.483,4.854-1.008,9.271-5.381,10.605s-8.906-0.93-10.392-5.784
				C54.887,249.962,57.378,245.547,61.752,244.21z M64.193,260.447c0.798,0.02,1.586-0.107,2.412-0.36
				c4.062-1.242,6.412-5.388,5.021-9.934c-0.537-1.756-1.526-3.147-2.769-4.125c-0.717-0.006-1.438,0.102-2.127,0.312
				c-4.133,1.266-6.504,5.453-5.094,10.068C62.156,258.097,63.066,259.474,64.193,260.447z"/>
			<path fill="#2A5CA7" d="M102.623,248.851l-3.973-2.892l3.567,11.674l-6.024,1.843l-4.688-1.653l-7.688-25.142l4.479-1.366
				l4.553,1.582l9.539,7.062l5.264-14.562l4.478-1.369l4.729,1.681l7.676,25.104l-6.026,1.842L113.823,251l-1.821-5.958
				l-1.629,4.526l-3.064,0.938L102.623,248.851z M109.581,235.274l4.601,15.049l4.959-1.519l-7.369-24.104l-3.719,1.137
				l-5.854,16.325l-13.981-10.262l-3.719,1.138l7.369,24.106l4.959-1.518l-4.602-15.049l10.48,7.679l2.479-0.759L109.581,235.274z"
				/>
			<path fill="#2A5CA7" d="M123.997,220.397l5.991-1.832l4.729,1.681l7.677,25.104l-6.026,1.843l-4.687-1.655L123.997,220.397z
				 M124.67,220.757l7.371,24.105l4.959-1.517l-7.371-24.105L124.67,220.757z"/>
			<path fill="#2A5CA7" d="M150.789,215.183l9.857,7.115l-3.664-11.984l5.991-1.832l4.729,1.682l7.676,25.104l-4.441,1.357
				l-4.687-1.654l-9.622-6.963l3.632,11.881l-6.024,1.845l-4.688-1.656l-7.688-25.14l4.408-1.349L150.789,215.183z M149.909,239.399
				l4.959-1.518l-4.634-15.15l16.101,11.646l3.651-1.116l-7.37-24.104l-4.959,1.516l4.622,15.119l-16.09-11.611l-3.649,1.114
				L149.909,239.399z"/>
			<path fill="#2A5CA7" d="M203.451,209.437l4.828,1.688c2.342,7.907-1.273,14.925-9.265,17.366
				c-3.341,1.021-6.274,0.902-9.078-0.011l-4.103-1.345c-4.396-1.442-7.61-4.451-9.042-9.135c-2.357-7.714,2.021-14.814,9.46-17.09
				c2.963-0.905,6.358-1.002,9.586,0.195l3.44,1.281c3.185,1.174,5.964,2.997,7.733,5.959L203.451,209.437z M177.309,217.845
				c2.266,7.403,9.599,10.697,16.728,8.519c7.748-2.368,11.297-8.989,9.102-16.414l-13.153,4.021l1.229,4.028l7.129-2.181
				c-0.403,2.985-2.342,5.272-5.612,6.272c-4.58,1.399-8.887-0.86-10.393-5.785c-1.504-4.925,1.11-9.303,5.38-10.605
				c3.031-0.927,6.301-0.082,8.463,2.308l5.306-1.621c-3.183-4.863-9.252-6.734-15.071-4.955
				C179.284,203.608,175.045,210.438,177.309,217.845z M189.309,213.61l11.141-3.405l-4.453-1.576
				c-0.39-0.407-0.802-0.771-1.248-1.125c-0.672,0.019-1.395,0.125-2.047,0.324c-4.063,1.243-6.525,5.385-5.095,10.067
				c0.517,1.688,1.356,3.086,2.448,4.07c0.797,0.021,1.654-0.13,2.517-0.393c1.138-0.35,1.955-0.749,2.664-1.268l-4.379-1.637
				L189.309,213.61z"/>
			<path fill="#2A5CA7" d="M227.973,202.862c-1.11-0.375-2-0.877-2.694-1.491c-1.159-1.021-1.978-2.276-2.478-3.912
				c-1.307-4.271,0.924-8.002,5.898-9.522c2.326-0.711,4.254-0.623,6.229,0.054l3.704,1.276c2.186,0.744,4.234,2.396,5.214,5.601
				l-5.871,1.795l-3.854-1.345c-0.572,0.477-0.76,1.212-0.529,1.97l0.08,0.258c2.049,0.24,3.988,0.606,5.229,1.095l4.071,1.561
				c2.691,1.042,4.076,2.613,4.852,5.146c1.385,4.527-0.896,8.465-6.025,10.032c-2.17,0.663-4.2,0.794-6.387,0.05l-3.091-1.051
				c-3.677-1.248-5.254-3.025-6.312-5.809l6.062-1.854l4.094,1.441c0.869-0.359,1.221-1.429,0.92-2.41
				c-0.047-0.153-0.182-0.472-0.281-0.61c-1.582-0.062-3.207-0.394-4.846-0.945L227.973,202.862z M242.537,203.758
				c-1.033-3.375-3.244-5.071-8.697-5.663c-3.815-0.414-5.074-0.953-5.516-2.4c-0.369-1.203,0.117-2.444,1.771-2.95
				c1.616-0.494,2.888,0.211,3.34,1.69l5.026-1.537c-1.282-4.202-5.301-5.762-9.604-4.443c-4.648,1.421-6.752,4.889-5.541,8.85
				c1.08,3.528,3.479,5.281,8.889,5.793c3.682,0.344,4.92,0.942,5.395,2.492c0.475,1.551-0.323,2.887-2.012,3.401
				c-1.688,0.515-3.145,0.058-3.844-1.611l-5.027,1.537c1.455,3.771,5.252,5.853,10.107,4.366
				C241.682,211.795,243.836,208.011,242.537,203.758z"/>
			<path fill="#2A5CA7" d="M259.135,178.631c3.135-0.959,6.383-0.991,9.588,0.195l4.164,1.55c4.718,1.76,7.062,4.506,8.4,8.879
				c2.305,7.542-1.916,14.669-9.391,16.954c-3.408,1.042-6.584,0.997-9.511-0.067l-4.819-1.727
				c-3.533-1.273-6.586-4.426-7.895-8.695C247.348,188.108,251.594,180.937,259.135,178.631z M266.916,204.08
				c7.232-2.211,11.334-9.114,9.102-16.415c-2.23-7.301-9.491-10.729-16.725-8.518c-7.23,2.209-11.334,9.111-9.102,16.414
				C252.424,202.86,259.686,206.291,266.916,204.08z M260.598,183.417c4.375-1.337,8.908,0.93,10.396,5.785
				c1.482,4.855-1.009,9.271-5.384,10.607c-4.373,1.336-8.905-0.932-10.392-5.785C253.734,189.168,256.225,184.754,260.598,183.417z
				 M263.041,199.653c0.795,0.021,1.584-0.107,2.412-0.36c4.062-1.242,6.41-5.387,5.021-9.933c-0.537-1.758-1.526-3.147-2.769-4.125
				c-0.718-0.008-1.438,0.101-2.127,0.312c-4.134,1.265-6.504,5.453-5.095,10.067C261.004,197.302,261.914,198.681,263.041,199.653z
				"/>
			<path fill="#2A5CA7" d="M294.25,167.896c3.135-0.959,6.381-0.99,9.588,0.193l4.162,1.553c4.719,1.758,7.066,4.506,8.402,8.879
				c2.307,7.541-1.916,14.668-9.393,16.953c-3.407,1.043-6.584,0.998-9.51-0.066l-4.819-1.727c-3.532-1.273-6.586-4.428-7.894-8.695
				C282.463,177.373,286.709,170.2,294.25,167.896z M302.031,193.345c7.23-2.211,11.334-9.113,9.102-16.414
				c-2.23-7.302-9.492-10.729-16.725-8.52c-7.232,2.212-11.334,9.113-9.103,16.415C287.537,192.126,294.799,195.556,302.031,193.345
				z M295.713,172.681c4.373-1.336,8.908,0.93,10.396,5.786c1.482,4.855-1.012,9.271-5.385,10.606s-8.905-0.93-10.391-5.784
				C288.85,178.433,291.34,174.019,295.713,172.681z M298.154,188.918c0.797,0.021,1.586-0.106,2.414-0.36
				c4.062-1.242,6.412-5.388,5.021-9.933c-0.537-1.757-1.526-3.147-2.769-4.125c-0.718-0.007-1.438,0.101-2.127,0.312
				c-4.134,1.265-6.504,5.453-5.095,10.067C296.117,186.565,297.027,187.944,298.154,188.918z"/>
			<path fill="#2A5CA7" d="M326.707,161.397l9.857,7.117L332.9,156.53l5.99-1.832l4.73,1.679l7.676,25.104l-4.441,1.357
				l-4.688-1.654l-9.621-6.961l3.631,11.881l-6.023,1.843l-4.688-1.656l-7.686-25.14l4.408-1.348L326.707,161.397z M325.826,185.617
				l4.959-1.517l-4.631-15.152l16.098,11.646l3.652-1.117l-7.371-24.105l-4.959,1.518l4.623,15.117l-16.09-11.611l-3.65,1.115
				L325.826,185.617z"/>
		</g>
	</g>
	<g>
		<g>
			<g>
				<path fill="#2A5CA7" d="M51.282,198.521l-8.289,2.584c-0.591,4.139-3.188,7.373-6.802,8.604
					c-0.504-0.835-0.896-1.756-1.214-2.795c-1.909-6.244,1.392-11.767,6.809-13.421c0.267-0.082,10.659,2.912,10.659,2.912
					l8.447-2.402c-2.363-3.945-6.066-6.287-10.312-7.854l-10.249-3.625c-4.301-1.596-8.83-1.461-12.778-0.254
					c-9.917,3.031-15.756,12.502-12.613,22.783c1.909,6.244,6.199,10.254,12.057,12.179l11.126,3.789
					c3.731,1.217,7.649,1.377,12.103,0.015c7.986-2.44,13.201-9.807,13.065-18.297L51.282,198.521z"/>
				<path fill="#FF8CA7" d="M37.928,216.205c7.758-2.373,13.071-8.968,12.961-16.712l-7.068,2.158
					c-0.607,4.254-3.592,7.627-7.635,8.861c-5.689,1.738-11.846-1.148-13.853-7.715c-2.007-6.562,1.479-12.396,7.172-14.14
					c4.04-1.235,8.399-0.107,11.281,3.075l7.071-2.159c-4.241-6.484-12.334-8.98-20.091-6.607
					c-9.504,2.904-15.152,12.013-12.135,21.882C18.65,214.72,28.424,219.108,37.928,216.205z"/>
			</g>
			<g>
				<path fill="#2A5CA7" d="M288.07,132.183l-5.906-19.326l-11.969-4.23l-7.986,2.439l6.008,19.646
					c0.953,3.111,0.479,5.445-0.729,7.04l-5.707-18.665l-6.306-2.236l-5.659-1.996l-7.989,2.442l5.883,19.233
					c1.627,5.326,4.871,9.203,8.981,10.656l10.608,3.746c4.498,1.584,7.68,1.312,11.219,0.232
					C286.182,148.821,291.158,142.282,288.07,132.183z"/>
				<path fill="#FF8CA7" d="M275.391,128.067l-5.672-18.545l-6.608,2.021l5.795,18.958c1.729,5.646-0.849,9.045-4.429,10.141
					c-3.579,1.094-7.618-0.283-9.346-5.929l-5.793-18.958l-6.613,2.021l5.672,18.545c2.977,9.729,10.477,12.258,17.82,10.011
					C273.561,144.088,278.365,137.799,275.391,128.067z"/>
			</g>
			<g>
				<path fill="#2A5CA7" d="M322.775,108.021l-2.117-6.935l-11.969-4.231l-25.158,7.69l2.135,7.111l10.523,3.713l6.176,20.315
					l11.9,4.133l8.031-2.549l-8.109-26.58L322.775,108.021z"/>
				<polygon fill="#FF8CA7" points="302.842,134.531 309.451,132.51 301.34,105.978 309.924,103.353 308.211,97.753 
					284.436,105.022 286.146,110.625 294.73,108 				"/>
			</g>
			<g>
				<path fill="#2A5CA7" d="M108.818,184.274c-1.782-5.83-4.909-9.493-11.199-11.836l-11.209-4.063
					c-4.271-1.579-8.604-1.536-12.777-0.26c-10.056,3.073-15.715,12.637-12.613,22.78c1.738,5.691,5.812,9.896,10.521,11.594
					l12.084,4.296c3.896,1.419,8.133,1.479,12.677,0.09C106.266,203.83,111.891,194.327,108.818,184.274z M82.354,195.551
					c-0.512-0.842-0.945-1.772-1.262-2.799c-1.824-5.963,1.098-11.38,6.292-13.241c0.562,0.864,1.03,1.828,1.36,2.908
					C90.562,188.364,87.58,193.784,82.354,195.551z"/>
				<path fill="#FF8CA7" d="M73.841,168.806c-9.639,2.946-15.108,12.147-12.135,21.881c2.978,9.732,12.657,14.304,22.297,11.354
					c9.638-2.946,15.108-12.147,12.134-21.881C93.161,170.429,83.482,165.856,73.841,168.806z M82.264,196.349
					c-5.83,1.782-11.875-1.235-13.854-7.711c-1.98-6.473,1.34-12.359,7.172-14.142c5.83-1.782,11.872,1.241,13.852,7.712
					C91.412,188.685,88.092,194.565,82.264,196.349z"/>
			</g>
			<g>
				<path fill="#2A5CA7" d="M201.83,155.836c-1.781-5.83-4.908-9.491-11.197-11.836l-11.209-4.063
					c-4.271-1.578-8.604-1.535-12.776-0.26c-10.058,3.074-15.716,12.639-12.614,22.78c1.738,5.692,5.811,9.896,10.521,11.594
					l12.084,4.296c3.896,1.42,8.136,1.479,12.677,0.09C199.277,175.392,204.902,165.89,201.83,155.836z M175.366,167.112
					c-0.511-0.842-0.946-1.772-1.261-2.799c-1.826-5.963,1.097-11.381,6.293-13.242c0.56,0.865,1.026,1.828,1.36,2.91
					C183.576,159.927,180.594,165.347,175.366,167.112z"/>
				<path fill="#FF8CA7" d="M166.854,140.367c-9.639,2.946-15.107,12.147-12.135,21.881c2.977,9.733,12.657,14.304,22.299,11.354
					c9.64-2.946,15.106-12.147,12.134-21.881C186.176,141.989,176.496,137.42,166.854,140.367z M175.275,167.91
					c-5.83,1.782-11.875-1.237-13.854-7.712c-1.979-6.473,1.341-12.357,7.173-14.141c5.829-1.783,11.872,1.239,13.853,7.711
					C184.424,160.245,181.105,166.128,175.275,167.91z"/>
			</g>
			<g>
				<path fill="#2A5CA7" d="M144.544,170.112l-8.289,2.584c-0.591,4.138-3.19,7.371-6.802,8.604
					c-0.504-0.835-0.896-1.755-1.215-2.795c-1.909-6.242,1.393-11.766,6.81-13.421c0.267-0.082,10.659,2.912,10.659,2.912
					l8.447-2.401c-2.363-3.947-6.066-6.287-10.309-7.854l-10.25-3.625c-4.303-1.596-8.83-1.46-12.777-0.252
					c-9.918,3.029-15.756,12.5-12.614,22.781c1.909,6.244,6.2,10.254,12.058,12.179l11.125,3.789
					c3.733,1.216,7.649,1.376,12.104,0.014c7.986-2.438,13.199-9.805,13.064-18.297L144.544,170.112z"/>
				<path fill="#FF8CA7" d="M131.191,187.796c7.757-2.373,13.07-8.967,12.961-16.712l-7.069,2.159
					c-0.608,4.253-3.592,7.626-7.634,8.861c-5.691,1.737-11.846-1.149-13.854-7.715c-2.008-6.564,1.479-12.397,7.174-14.141
					c4.039-1.234,8.398-0.105,11.279,3.076l7.071-2.16c-4.241-6.482-12.334-8.979-20.093-6.605
					c-9.504,2.902-15.15,12.012-12.135,21.881C111.913,186.312,121.688,190.7,131.191,187.796z"/>
			</g>
			<g>
				<path fill="#2A5CA7" d="M248.393,160.231l-10.229-33.467l-11.97-4.233l-7.983,2.442l4.062,13.291l-6.66-4.807l-11.681-4.12
					l-5.875,1.794l10.243,33.059l11.906,4.199l8.033-2.229l-4.02-13.026l6.345,4.595l11.905,4.256L248.393,160.231z"/>
				<polygon fill="#FF8CA7" points="208.777,163.749 215.391,161.728 209.215,141.526 230.678,157.056 235.539,155.567 
					225.717,123.431 219.107,125.451 225.268,145.604 203.82,130.126 198.953,131.613 				"/>
			</g>
		</g>
		<g>
			<g>
				<path fill="#2A5CA7" d="M299.865,64.392L287.9,60.159l-8.104,2.477c1.302-1.687,3.168-2.965,5.455-3.662
					c2.709-0.83,5.297-1.068,8.623-0.531l0.517-7.185l-11.966-4.231c-3.688-0.73-7.475-0.479-11.284,0.688
					c-10.743,3.284-15.873,12.936-12.845,22.852c1.843,6.016,6.035,10.055,10.974,11.757l12.224,4.254
					c3.705,1.276,8.094,1.19,12.688-0.213c3.947-1.207,7.527-2.954,10.65-5.718L299.865,64.392z M281.771,73.999h0.004l0.982,0.234
					c-0.799,0.39-1.7,0.67-2.588,0.939c-0.188,0.059-0.369,0.046-0.555,0.096c-0.477-0.789-0.867-1.574-1.178-2.543L281.771,73.999z
					"/>
				<path fill="#FF8CA7" d="M281.654,47.61c-3.205-0.627-6.679-0.317-10.306,0.791c-10.325,3.158-15.269,12.449-12.362,21.951
					c3.018,9.871,12.562,14.332,22.895,11.174c3.857-1.18,7.316-2.84,10.158-5.364L287.42,61.06l-13.131,4.014l1.713,5.601
					l6.52-1.993l1.658,5.418c-0.946,0.689-2.42,1.291-3.797,1.713c-6.152,1.879-12.586-0.621-14.692-7.506
					c-2.062-6.748,1.252-12.33,7.265-14.17c2.851-0.869,5.375-1.139,8.278-0.672L281.654,47.61z"/>
			</g>
			<g>
				<path fill="#2A5CA7" d="M63.932,155.908L53.7,122.44l-6.308-2.237l-0.02,0.006l-5.641-2.001l-5.966,1.825l-6.39,17.682
					l-7.686-5.688l-5.599-1.947l-0.062-0.045l-6.064-2.111l-5.966,1.823l10.245,34.278L20.49,167h0.005l5.655,1.229l8.032-2.84
					l-4.076-12.779l5.2,2.392h0.006l5.654,1.248l3.65-1.174l5.62,1.925h0.007l5.653,1.678L63.932,155.908z"/>
				<polygon fill="#FF8CA7" points="38.337,133.202 44.473,153.263 51.082,151.241 41.257,119.106 36.3,120.623 28.497,142.384 
					9.857,128.707 4.899,130.224 14.724,162.356 21.333,160.337 15.201,140.274 29.173,150.51 32.478,149.5 				"/>
			</g>
			<g>
				<path fill="#2A5CA7" d="M193.461,116.297L183.232,82.83l-11.97-4.231l-7.987,2.44l4.062,13.292l-6.66-4.807l-11.678-4.121
					l-5.876,1.797l10.245,33.056l11.906,4.2l8.032-2.229l-4.019-13.025l6.344,4.593l11.907,4.257L193.461,116.297z"/>
				<polygon fill="#FF8CA7" points="153.848,119.813 160.459,117.794 154.283,97.595 175.747,113.121 180.609,111.634 
					170.787,79.496 164.176,81.519 170.337,101.671 148.889,86.19 144.021,87.679 				"/>
			</g>
			<g>
				<path fill="#2A5CA7" d="M217.312,109.005L207.08,75.539l-11.965-4.233l-7.99,2.442l10.246,33.776l11.906,4.203L217.312,109.005z
					"/>
				
					<rect x="179.436" y="85.824" transform="matrix(-0.2924 -0.9563 0.9563 -0.2924 168.2404 303.0481)" fill="#FF8CA7" width="33.604" height="6.913"/>
			</g>
			<g>
				<g>
					<path fill="#2A5CA7" d="M151.298,129.187l-0.498-1.305c-1.708-4.597-4.64-7.615-8.177-8.844l-0.164-0.051
						c2.898-2.992,3.818-7.039,2.514-11.309c-1.277-4.181-3.939-6.979-8.619-8.658l-9.543-3.369
						c-3.267-1.159-6.478-1.482-10.84-0.148l-11.752,3.592l10.245,33.112l11.906,4.2l8.034-2.256l-2.041-6.367l5.435,2.225
						l5.649,1.786L151.298,129.187z"/>
				</g>
				<path fill="#FF8CA7" d="M138.062,123.584c-1.963-4.771-5.049-7.64-8.818-8.646c3.23-2.896,4.367-7.061,3.049-11.375
					c-1.923-6.289-8.214-9.787-16.109-7.373l-11.063,3.382l9.823,32.135l6.613-2.021l-2.863-9.367l2.34-0.715
					c4.501-1.375,8.467,0.927,10.632,6.037l0.356,0.844l6.43-1.963L138.062,123.584z M121.322,113.496l-4.314,1.319l-3.593-11.754
					l4.315-1.318c3.625-1.11,6.721,0.152,7.899,4.009S124.948,112.386,121.322,113.496z"/>
			</g>
			<g>
				<path fill="#2A5CA7" d="M107.996,124.253c-1.782-5.83-4.909-9.492-11.199-11.836l-11.209-4.062
					c-4.271-1.58-8.604-1.537-12.777-0.26c-10.056,3.073-15.715,12.637-12.612,22.779c1.737,5.693,5.81,9.896,10.521,11.594
					l12.084,4.297c3.896,1.418,8.133,1.479,12.678,0.09C105.443,143.81,111.068,134.308,107.996,124.253z M81.531,135.528
					c-0.512-0.842-0.946-1.771-1.262-2.797c-1.824-5.963,1.098-11.381,6.293-13.244c0.561,0.865,1.028,1.83,1.358,2.91
					C89.74,128.345,86.758,133.763,81.531,135.528z"/>
				<path fill="#FF8CA7" d="M73.02,108.784c-9.639,2.947-15.107,12.148-12.135,21.881c2.977,9.732,12.656,14.303,22.297,11.355
					c9.639-2.947,15.108-12.148,12.135-21.883C92.339,110.406,82.66,105.836,73.02,108.784z M81.441,136.327
					c-5.83,1.781-11.875-1.237-13.854-7.712c-1.979-6.472,1.343-12.357,7.174-14.142c5.829-1.781,11.871,1.24,13.853,7.713
					C90.59,128.662,87.27,134.545,81.441,136.327z"/>
			</g>
			<g>
				<path fill="#2A5CA7" d="M261.303,95.556L251.074,62.09l-11.969-4.233l-7.986,2.442l4.061,13.291l-6.66-4.807l-11.68-4.12
					l-5.875,1.797l10.246,33.057l11.906,4.198l8.031-2.228l-4.02-13.026l6.345,4.593l11.905,4.258L261.303,95.556z"/>
				<polygon fill="#FF8CA7" points="221.688,99.073 228.301,97.054 222.125,76.853 243.588,92.38 248.451,90.894 238.627,58.755 
					232.018,60.776 238.178,80.931 216.73,65.449 211.865,66.937 				"/>
			</g>
		</g>
		<g>
			<g>
				<path fill="#2A5CA7" d="M230.025,26.677c-1.8-5.877-5.496-9.766-10.586-11.621l-10.623-3.791
					c-4.574-1.664-8.994-1.668-14.045-0.123l-11.432,3.494l10.246,33.313l11.904,4.2l11.616-3.451
					C227.852,45.413,233.266,37.281,230.025,26.677z M208.654,33.949l-3.24-10.593l3.438-1.051c0.433,0.76,0.813,1.594,1.11,2.562
					C211.098,28.574,210.449,31.66,208.654,33.949z"/>
				<path fill="#FF8CA7" d="M217.34,22.562c-3.115-10.19-11.934-13.92-22.356-10.733l-10.741,3.284l9.827,32.136l6.677-1.958
					l-0.022-0.076l4.089-1.25C215.23,40.778,220.471,32.8,217.34,22.562z M203.145,38.349l-4.137,1.267l-6.397-20.937l4.134-1.264
					c6.016-1.838,11.764,0.219,13.909,7.242C212.771,31.589,209.156,36.511,203.145,38.349z"/>
			</g>
			<g>
				<path fill="#2A5CA7" d="M91.868,67.459l-11.966-4.233l-8.101,2.479c1.302-1.688,3.169-2.967,5.454-3.664
					c2.711-0.829,5.296-1.066,8.625-0.529l0.516-7.185l-11.965-4.233c-3.688-0.729-7.475-0.477-11.285,0.688
					c-10.744,3.282-15.873,12.936-12.842,22.852c1.84,6.015,6.032,10.054,10.973,11.757L73.5,89.642
					c3.704,1.276,8.096,1.19,12.686-0.213c3.948-1.207,7.53-2.955,10.651-5.717L91.868,67.459z M73.773,75.999h0.006l0.984,0.77
					c-0.8,0.391-1.699,0.938-2.587,1.207c-0.188,0.06-0.37,0.178-0.557,0.229c-0.476-0.788-0.866-2.041-1.179-3.01L73.773,75.999z"
					/>
				<path fill="#FF8CA7" d="M73.657,50.679c-3.206-0.627-6.675-0.318-10.302,0.791c-10.33,3.157-15.271,12.448-12.364,21.95
					c3.018,9.871,12.563,14.332,22.894,11.175c3.856-1.18,7.315-2.84,10.157-5.365l-4.618-15.104L66.295,68.14l1.712,5.603
					l6.519-1.993l1.656,5.418c-0.942,0.688-2.416,1.29-3.793,1.712c-6.152,1.88-12.588-0.62-14.695-7.506
					c-2.062-6.748,1.252-12.329,7.267-14.169c2.849-0.869,5.375-1.141,8.276-0.672L73.657,50.679z"/>
			</g>
			<g>
				<path fill="#2A5CA7" d="M140.27,54.117c-1.783-5.83-4.91-9.492-11.199-11.836l-11.209-4.062
					c-4.271-1.58-8.604-1.537-12.777-0.263c-10.057,3.074-15.715,12.638-12.611,22.781c1.737,5.692,5.809,9.895,10.521,11.592
					l12.084,4.296c3.896,1.419,8.134,1.479,12.678,0.091C137.715,73.672,143.342,64.17,140.27,54.117z M113.805,65.396
					c-0.512-0.846-0.947-1.772-1.262-2.801c-1.824-5.963,1.098-11.381,6.293-13.242c0.561,0.867,1.03,1.83,1.359,2.91
					C122.014,58.207,119.032,63.628,113.805,65.396z"/>
				<path fill="#FF8CA7" d="M105.292,38.647c-9.64,2.947-15.108,12.146-12.135,21.881c2.977,9.731,12.657,14.303,22.298,11.354
					c9.639-2.945,15.109-12.146,12.135-21.881C124.613,40.271,114.934,35.7,105.292,38.647z M113.714,66.19
					c-5.83,1.783-11.875-1.236-13.853-7.713c-1.979-6.472,1.341-12.356,7.173-14.141c5.829-1.781,11.873,1.241,13.853,7.712
					C122.863,58.524,119.543,64.408,113.714,66.19z"/>
			</g>
			<g>
				<path fill="#2A5CA7" d="M187.121,39.794c-1.781-5.831-4.908-9.492-11.198-11.837l-11.209-4.062
					c-4.272-1.58-8.603-1.537-12.778-0.263c-10.055,3.074-15.715,12.64-12.611,22.781c1.738,5.692,5.81,9.896,10.521,11.594
					l12.084,4.298c3.896,1.418,8.133,1.479,12.677,0.09C184.57,59.351,190.193,49.847,187.121,39.794z M160.656,51.069
					c-0.512-0.842-0.946-1.771-1.262-2.799c-1.824-5.961,1.098-11.379,6.293-13.242c0.561,0.865,1.028,1.83,1.358,2.91
					C168.866,43.884,165.883,49.304,160.656,51.069z"/>
				<path fill="#FF8CA7" d="M152.145,24.324c-9.639,2.946-15.107,12.147-12.135,21.881c2.977,9.733,12.656,14.304,22.297,11.356
					c9.64-2.947,15.108-12.149,12.136-21.883C171.465,25.946,161.786,21.377,152.145,24.324z M160.566,51.867
					c-5.83,1.782-11.875-1.237-13.854-7.712c-1.979-6.471,1.343-12.357,7.175-14.141c5.828-1.783,11.87,1.239,13.852,7.713
					C169.716,44.202,166.395,50.085,160.566,51.867z"/>
			</g>
		</g>
	</g>
</g>
</svg>
