<?xml version="1.0" encoding="utf-8"?>
<!-- Generator: Adobe Illustrator 16.0.0, SVG Export Plug-In . SVG Version: 6.00 Build 0)  -->
<!DOCTYPE svg PUBLIC "-//W3C//DTD SVG 1.1//EN" "http://www.w3.org/Graphics/SVG/1.1/DTD/svg11.dtd">
<svg version="1.1" id="Calque_1" xmlns="http://www.w3.org/2000/svg" xmlns:xlink="http://www.w3.org/1999/xlink" x="0px" y="0px"
	 width="72px" height="72px" viewBox="0 0 72 72" enable-background="new 0 0 72 72" xml:space="preserve">
<g>
	<g>
		<g>
			<path fill="#2A5CA7" d="M60.354,20.281L46.348,9.757c-5.324-4.056-11.426-5.853-17.842-5.853C13.061,3.905,1,14.906,1,30.492
				c0,8.745,3.914,16.397,9.803,20.805l15.135,11.229c4.865,3.664,10.789,5.57,17.771,5.57C59.014,68.096,71,57.162,71,41.717
				C71,32.762,68.182,26.277,60.354,20.281z"/>
		</g>
	</g>
	<path fill="#6ACABA" d="M28.506,4.96c-14.811,0-26.447,10.58-26.447,25.531c0,14.952,11.637,25.532,26.447,25.532
		c14.809,0,26.447-10.58,26.447-25.532C54.953,15.541,43.314,4.96,28.506,4.96z"/>
	<path fill="#2A5CA7" d="M30.9,32.672v15.732c0,0.316-0.256,0.574-0.568,0.574h-7.137c-0.309,0-0.568-0.258-0.568-0.574V32.672
		h-5.836c-0.316,0-0.572-0.256-0.572-0.572v-6.121c0-0.322,0.256-0.575,0.572-0.575h5.836v-4.388c0-1.496,0-4.276,1.342-6.043
		c1.549-2.042,3.572-2.995,6.363-2.995c4.801,0,7.885,0.664,8.01,0.691c0.297,0.066,0.488,0.353,0.445,0.659l-0.963,5.632
		c-0.018,0.155-0.104,0.292-0.23,0.375c-0.119,0.094-0.27,0.121-0.43,0.097c-0.02-0.003-2.621-0.449-4.035-0.449
		c-1.012,0-2.229,0.248-2.229,1.428v4.993h6.564c0.156,0,0.309,0.068,0.42,0.185c0.105,0.118,0.164,0.268,0.15,0.427l-0.422,6.129
		c-0.02,0.3-0.271,0.528-0.574,0.528"/>
</g>
</svg>
