<?xml version="1.0" encoding="utf-8"?>
<!-- Generator: Adobe Illustrator 16.0.0, SVG Export Plug-In . SVG Version: 6.00 Build 0)  -->
<!DOCTYPE svg PUBLIC "-//W3C//DTD SVG 1.1//EN" "http://www.w3.org/Graphics/SVG/1.1/DTD/svg11.dtd">
<svg version="1.1" id="Calque_1" xmlns="http://www.w3.org/2000/svg" xmlns:xlink="http://www.w3.org/1999/xlink" x="0px" y="0px"
	 width="72px" height="72px" viewBox="0 0 72 72" enable-background="new 0 0 72 72" xml:space="preserve">
<g>
	<g>
		<g>
			<path fill="#2A5CA7" d="M60.354,20.281L46.348,9.757c-5.324-4.056-11.426-5.853-17.842-5.853C13.061,3.905,1,14.906,1,30.492
				c0,8.745,3.914,16.397,9.803,20.805l15.135,11.229c4.865,3.664,10.789,5.57,17.771,5.57C59.014,68.096,71,57.162,71,41.717
				C71,32.762,68.182,26.277,60.354,20.281z"/>
		</g>
	</g>
	<path fill="#6ACABA" d="M28.506,4.96c-14.811,0-26.447,10.58-26.447,25.531c0,14.952,11.637,25.532,26.447,25.532
		c14.809,0,26.447-10.58,26.447-25.532C54.953,15.541,43.314,4.96,28.506,4.96z"/>
	<g>
		<g>
			<path fill="#2A5CA7" d="M16.071,26.117c0.387,0.272,1.551,1.083,3.493,2.429c1.944,1.346,3.434,2.384,4.467,3.111
				c0.114,0.079,0.355,0.252,0.725,0.52s0.676,0.483,0.921,0.647c0.243,0.165,0.539,0.35,0.886,0.555
				c0.347,0.203,0.674,0.357,0.98,0.46s0.591,0.152,0.852,0.152h0.018h0.018c0.261,0,0.546-0.05,0.852-0.152
				c0.307-0.103,0.634-0.257,0.98-0.46c0.347-0.205,0.642-0.39,0.887-0.555c0.244-0.164,0.55-0.38,0.921-0.647
				c0.369-0.268,0.61-0.44,0.725-0.52c1.045-0.728,3.704-2.574,7.977-5.54c0.829-0.579,1.522-1.279,2.08-2.097
				c0.557-0.818,0.835-1.677,0.835-2.573c0-0.751-0.27-1.394-0.811-1.927c-0.539-0.534-1.178-0.801-1.916-0.801H15.866
				c-0.875,0-1.548,0.295-2.021,0.886c-0.471,0.591-0.707,1.33-0.707,2.216c0,0.716,0.312,1.492,0.938,2.327
				S15.366,25.64,16.071,26.117z"/>
			<path fill="#2A5CA7" d="M41.98,27.94c-3.727,2.523-6.557,4.483-8.488,5.882c-0.647,0.478-1.174,0.849-1.577,1.116
				c-0.404,0.268-0.939,0.539-1.611,0.817c-0.67,0.278-1.295,0.418-1.874,0.418h-0.018h-0.018c-0.579,0-1.204-0.14-1.874-0.418
				c-0.671-0.278-1.208-0.55-1.611-0.817s-0.93-0.639-1.577-1.116c-1.533-1.125-4.357-3.085-8.472-5.882
				c-0.647-0.431-1.222-0.926-1.722-1.482v13.534c0,0.751,0.268,1.393,0.802,1.927c0.533,0.534,1.176,0.801,1.926,0.801h25.093
				c0.749,0,1.392-0.267,1.925-0.801c0.534-0.534,0.802-1.176,0.802-1.927V26.458C43.197,27.004,42.629,27.498,41.98,27.94z"/>
		</g>
	</g>
</g>
</svg>
