<?xml version="1.0" encoding="utf-8"?>
<!-- Generator: Adobe Illustrator 16.0.0, SVG Export Plug-In . SVG Version: 6.00 Build 0)  -->
<!DOCTYPE svg PUBLIC "-//W3C//DTD SVG 1.1//EN" "http://www.w3.org/Graphics/SVG/1.1/DTD/svg11.dtd">
<svg version="1.1" id="Calque_1" xmlns="http://www.w3.org/2000/svg" xmlns:xlink="http://www.w3.org/1999/xlink" x="0px" y="0px"
	 width="72px" height="72px" viewBox="0 0 72 72" enable-background="new 0 0 72 72" xml:space="preserve">
<g>
	<g>
		<g>
			<path fill="#2A5CA7" d="M60.354,20.281L46.348,9.757c-5.324-4.056-11.426-5.853-17.842-5.853C13.061,3.905,1,14.906,1,30.492
				c0,8.745,3.914,16.397,9.803,20.805l15.135,11.229c4.865,3.664,10.789,5.57,17.771,5.57C59.014,68.096,71,57.162,71,41.717
				C71,32.762,68.182,26.277,60.354,20.281z"/>
		</g>
	</g>
	<path fill="#6ACABA" d="M28.506,4.96c-14.811,0-26.447,10.58-26.447,25.531c0,14.952,11.637,25.532,26.447,25.532
		c14.809,0,26.447-10.58,26.447-25.532C54.953,15.541,43.314,4.96,28.506,4.96z"/>
	<path fill="#2A5CA7" d="M39.28,45.859c-0.813,0.813-1.794,1.222-2.931,1.222h-7.346c-3.433,0-6.367-1.216-8.824-3.641
		c-2.444-2.438-3.675-5.368-3.675-8.8V18.035c0-1.139,0.425-2.119,1.247-2.932c0.844-0.816,1.821-1.228,2.972-1.228
		c1.139,0,2.118,0.411,2.943,1.228c0.813,0.812,1.213,1.793,1.213,2.932v4.162h11.369c1.131,0,2.118,0.416,2.931,1.225
		c0.818,0.822,1.222,1.807,1.222,2.94c0,1.145-0.403,2.128-1.222,2.941c-0.812,0.812-1.8,1.222-2.931,1.222H24.836v4.115
		c0,1.112,0.399,2.072,1.226,2.894c0.818,0.819,1.779,1.225,2.894,1.225h7.395c1.137,0,2.117,0.407,2.931,1.22
		c0.818,0.812,1.225,1.797,1.225,2.938C40.505,44.063,40.099,45.047,39.28,45.859z"/>
</g>
</svg>
