<?xml version="1.0" encoding="utf-8"?>
<!-- Generator: Adobe Illustrator 16.0.0, SVG Export Plug-In . SVG Version: 6.00 Build 0)  -->
<!DOCTYPE svg PUBLIC "-//W3C//DTD SVG 1.1//EN" "http://www.w3.org/Graphics/SVG/1.1/DTD/svg11.dtd">
<svg version="1.1" id="Calque_1" xmlns="http://www.w3.org/2000/svg" xmlns:xlink="http://www.w3.org/1999/xlink" x="0px" y="0px"
	 width="160px" height="160px" viewBox="0 0 160 160" enable-background="new 0 0 160 160" xml:space="preserve">
<rect fill="#6ACABA" width="160" height="160"/>
<g>
	<path fill="#2A5CA7" d="M23.627,24.561c-0.369,0-0.741-0.102-1.075-0.315c-0.931-0.595-1.203-1.831-0.608-2.762
		c2.417-3.783,5.709-5.816,9.908-7.704c1.004-0.453,2.19-0.004,2.645,1.004c0.453,1.007,0.003,2.191-1.004,2.645
		c-3.647,1.64-6.287,3.25-8.178,6.21C24.933,24.235,24.287,24.561,23.627,24.561z"/>
	<path fill="#2A5CA7" d="M43.111,44.389c-0.027,0-0.053,0-0.081-0.001c-1.104-0.043-1.963-0.974-1.919-2.078
		c0.137-3.458-2.114-7.113-3.818-9.561c-0.631-0.907-0.408-2.153,0.498-2.784c0.907-0.632,2.153-0.408,2.784,0.498
		c2.034,2.921,4.717,7.344,4.533,12.005C45.065,43.544,44.179,44.389,43.111,44.389z"/>
	<path fill="#2A5CA7" d="M14.929,41.782c-0.244,0-0.493-0.045-0.733-0.14c-1.449-0.572-3.123-0.592-4.895-0.614
		c-1.916-0.024-3.896-0.049-5.841-0.761c-1.037-0.38-1.57-1.528-1.19-2.566c0.38-1.037,1.529-1.57,2.566-1.19
		c1.302,0.477,2.862,0.496,4.515,0.517c1.959,0.024,4.18,0.052,6.312,0.894c1.027,0.405,1.532,1.567,1.126,2.594
		C16.48,41.302,15.727,41.782,14.929,41.782z"/>
	<path fill="#2A5CA7" d="M12.147,12.733c-0.284,0-0.573-0.061-0.848-0.19c-1.317-0.618-2.385-1.676-3.419-2.699
		C6.585,8.563,5.363,7.353,3.875,7.149C2.78,7,2.014,5.992,2.163,4.898c0.149-1.095,1.16-1.861,2.251-1.711
		c2.813,0.383,4.735,2.286,6.28,3.815c0.829,0.821,1.611,1.596,2.304,1.92c1,0.469,1.43,1.66,0.961,2.66
		C13.619,12.307,12.898,12.733,12.147,12.733z"/>
	<path fill="#2A5CA7" d="M9.68,70.049c-0.818,0-1.585-0.505-1.88-1.318c-0.2-0.553-0.428-1.14-0.663-1.747
		c-1.171-3.026-2.5-6.456-2.163-9.429c0.125-1.098,1.12-1.886,2.212-1.763c1.098,0.124,1.887,1.115,1.763,2.212
		C8.723,60,9.912,63.072,10.867,65.54c0.246,0.635,0.483,1.249,0.693,1.827c0.376,1.039-0.16,2.186-1.198,2.562
		C10.137,70.011,9.906,70.049,9.68,70.049z"/>
	<path fill="#2A5CA7" d="M26.756,73.959c-0.349,0-0.702-0.091-1.022-0.283c-0.949-0.566-1.259-1.794-0.693-2.742
		c2.087-3.498,2.865-8.125,1.894-11.253c-0.328-1.055,0.262-2.176,1.317-2.503c1.056-0.325,2.175,0.262,2.503,1.317
		c1.324,4.262,0.43,9.95-2.278,14.489C28.101,73.611,27.437,73.959,26.756,73.959z"/>
	<path fill="#2A5CA7" d="M45.776,59.699c-0.852,0-1.696-0.158-2.505-0.556c-0.991-0.487-1.4-1.685-0.913-2.677
		c0.487-0.991,1.686-1.4,2.677-0.913c1.02,0.5,3.195-0.399,4.784-1.057c0.734-0.303,1.427-0.59,2.087-0.795
		c1.059-0.331,2.176,0.26,2.504,1.314c0.329,1.055-0.259,2.176-1.314,2.504c-0.488,0.152-1.101,0.406-1.749,0.674
		C49.667,58.887,47.703,59.699,45.776,59.699z"/>
	<path fill="#2A5CA7" d="M47.804,14.82c-0.462,0-0.927-0.16-1.305-0.485c-0.836-0.721-0.93-1.984-0.208-2.821
		c1.278-1.482,1.313-3.08,1.267-5.777c-0.007-0.417-0.014-0.839-0.014-1.266c0-1.104,0.896-2,2-2s2,0.896,2,2
		c0,0.404,0.007,0.803,0.014,1.197c0.046,2.695,0.099,5.749-2.237,8.458C48.924,14.585,48.365,14.82,47.804,14.82z"/>
	<path fill="#2A5CA7" d="M59.799,36.429c-0.427,0-0.83-0.016-1.201-0.047c-1.101-0.09-1.92-1.055-1.83-2.156s1.063-1.926,2.156-1.83
		c2.796,0.227,6.752-0.669,7.968-2.323c0.654-0.89,1.906-1.081,2.796-0.426c0.89,0.654,1.081,1.906,0.426,2.796
		C67.913,35.438,63.133,36.429,59.799,36.429z"/>
	<path fill="#2A5CA7" d="M74.767,16.211c-0.184,0-0.37-0.025-0.555-0.079c-1.062-0.306-1.674-1.414-1.368-2.476
		c0.322-1.118,0.658-2.028,0.955-2.831c0.771-2.088,1.196-3.239,0.732-6.028c-0.181-1.089,0.556-2.12,1.646-2.301
		c1.089-0.177,2.12,0.556,2.301,1.646c0.637,3.835-0.087,5.797-0.926,8.069c-0.286,0.775-0.582,1.576-0.863,2.553
		C76.435,15.641,75.635,16.211,74.767,16.211z"/>
	<path fill="#2A5CA7" d="M42.763,84.047c-0.609,0-1.21-0.277-1.604-0.803c-0.661-0.885-0.48-2.138,0.405-2.799
		c1.796-1.343,3.018-4.595,3.392-7.047c0.167-1.092,1.182-1.84,2.279-1.675c1.092,0.167,1.842,1.187,1.675,2.279
		c-0.495,3.245-2.056,7.483-4.952,9.647C43.6,83.917,43.18,84.047,42.763,84.047z"/>
	<path fill="#2A5CA7" d="M17.017,89.614c-0.763,0-1.492-0.439-1.825-1.182c-1.302-2.897-3.916-4.464-7.466-6.36
		c-0.974-0.52-1.342-1.731-0.822-2.706c0.52-0.974,1.731-1.342,2.707-0.822c3.407,1.82,7.268,3.882,9.229,8.25
		c0.453,1.008,0.003,2.191-1.005,2.644C17.569,89.558,17.291,89.614,17.017,89.614z"/>
	<path fill="#2A5CA7" d="M28.495,100.397c-0.274,0-0.552-0.057-0.818-0.177c-1.008-0.452-1.458-1.636-1.006-2.644
		c0.942-2.099,1.519-4.685,2.076-7.185c0.196-0.88,0.389-1.742,0.592-2.564c0.265-1.073,1.349-1.728,2.422-1.461
		c1.072,0.266,1.726,1.35,1.461,2.422c-0.196,0.793-0.381,1.625-0.571,2.475c-0.601,2.694-1.222,5.481-2.331,7.952
		C29.988,99.957,29.258,100.397,28.495,100.397z"/>
	<path fill="#2A5CA7" d="M63.75,82.351c-3.42,0-7.762-0.412-9.508-3.491c-0.545-0.96-0.208-2.181,0.752-2.726
		c0.96-0.546,2.181-0.208,2.726,0.752c0.915,1.612,5.957,1.482,7.854,1.434l0.447-0.011c1.099-0.032,2.02,0.849,2.045,1.954
		c0.025,1.104-0.85,2.021-1.954,2.045l-0.436,0.012C65.091,82.334,64.438,82.351,63.75,82.351z"/>
	<path fill="#2A5CA7" d="M69.894,52.738c-0.442,0-0.888-0.146-1.258-0.446c-0.858-0.695-0.99-1.955-0.294-2.813l0.383-0.469
		c1.443-1.762,2.689-3.283,2.651-5.542c-0.019-1.104,0.861-2.015,1.966-2.033c1.103-0.041,2.015,0.861,2.033,1.966
		c0.063,3.727-1.944,6.177-3.557,8.145l-0.37,0.453C71.053,52.485,70.476,52.738,69.894,52.738z"/>
	<path fill="#2A5CA7" d="M83.809,24c-1.099,0-1.992-0.887-2-1.987C81.802,20.909,82.69,20,83.795,20h0.159
		c3.23,0,6.571-0.11,8.464-2.194c0.742-0.818,2.005-0.913,2.825-0.171c0.817,0.743,0.879,2.059,0.136,2.876
		C92.307,23.896,87.689,24,83.979,24h-0.157C83.817,24,83.812,24,83.809,24z"/>
	<path fill="#2A5CA7" d="M102.943,13.777c-0.048,0-0.095-0.001-0.144-0.005c-1.102-0.078-1.932-1.035-1.854-2.137
		c0.186-2.615-2.436-5.467-4.349-7.55c-0.747-0.813-0.694-2.079,0.119-2.826c0.815-0.748,2.079-0.693,2.826,0.12
		c2.406,2.619,5.7,6.205,5.394,10.54C104.861,12.972,103.983,13.777,102.943,13.777z"/>
	<path fill="#2A5CA7" d="M98.072,47.52c-0.058,0-0.116-0.002-0.175-0.007c-4.275-0.372-8.074-2.624-9.915-5.877
		c-0.544-0.961-0.206-2.182,0.755-2.726c0.962-0.542,2.183-0.206,2.726,0.756c1.202,2.123,3.8,3.603,6.78,3.861
		c1.101,0.096,1.915,1.065,1.819,2.166C99.973,46.734,99.099,47.52,98.072,47.52z"/>
	<path fill="#2A5CA7" d="M72.866,68.966c-0.613,0-1.251-0.105-1.915-0.345c-1.038-0.376-1.575-1.523-1.199-2.562
		c0.376-1.04,1.523-1.574,2.562-1.199c1.189,0.431,2.578-0.71,4.413-2.366c0.449-0.405,0.881-0.794,1.297-1.132
		c0.856-0.697,2.116-0.566,2.813,0.291c0.697,0.857,0.566,2.117-0.291,2.813c-0.365,0.297-0.744,0.641-1.139,0.997
		C77.721,66.986,75.528,68.966,72.866,68.966z"/>
	<path fill="#2A5CA7" d="M6.583,114.312c-0.581,0-1.156-0.251-1.551-0.736c-0.698-0.856-0.569-2.116,0.287-2.814
		c0.4-0.326,0.823-0.653,1.254-0.986c1.901-1.47,3.866-2.989,4.327-4.892c0.26-1.073,1.34-1.738,2.415-1.472
		c1.074,0.26,1.733,1.341,1.473,2.415c-0.792,3.266-3.551,5.398-5.768,7.112c-0.403,0.312-0.799,0.618-1.174,0.924
		C7.474,114.165,7.027,114.312,6.583,114.312z"/>
	<path fill="#2A5CA7" d="M27.104,124c-1.079,0-1.968-0.659-1.998-1.745c-0.034-1.23-0.33-2.38-0.644-3.704
		c-0.371-1.568-0.755-2.992-0.748-4.757c0.004-1.102,0.899-1.794,2-1.794c0.002,0,0.005,0,0.008,0c1.104,0,1.997,0.755,1.992,1.859
		c-0.005,1.29,0.309,2.541,0.641,3.944c0.346,1.462,0.704,2.737,0.749,4.38c0.031,1.104-0.84,1.816-1.944,1.816
		C27.142,124,27.123,124,27.104,124z"/>
	<path fill="#2A5CA7" d="M52.534,100.788c-3.472,0-7.034-0.433-9.408-2.676c-0.803-0.759-0.839-2.024-0.08-2.827
		c0.758-0.804,2.024-0.84,2.827-0.081c1.886,1.782,6.279,1.627,8.642,1.543c1.096-0.059,2.03,0.824,2.069,1.928
		c0.04,1.104-0.824,2.031-1.928,2.07C53.96,100.77,53.249,100.788,52.534,100.788z"/>
	<path fill="#2A5CA7" d="M64.326,111.529c-0.321,0-0.647-0.077-0.949-0.241c-0.972-0.525-1.333-1.738-0.808-2.71
		c1.55-2.867,1.529-5.964,1.504-9.55l-0.006-1.327c0-1.104,0.896-2,2-2s2,0.896,2,2L68.072,99c0.026,3.791,0.054,7.711-1.985,11.48
		C65.726,111.149,65.037,111.529,64.326,111.529z"/>
	<path fill="#2A5CA7" d="M133.374,110.31c-0.241,0-0.486-0.045-0.726-0.138c-0.658-0.257-1.358-0.48-2.101-0.719
		c-2.039-0.652-4.351-1.393-6.427-3.065c-0.86-0.692-0.997-1.951-0.304-2.812c0.692-0.862,1.952-0.996,2.812-0.304
		c1.498,1.205,3.267,1.771,5.139,2.371c0.768,0.246,1.561,0.5,2.334,0.802c1.029,0.401,1.538,1.561,1.137,2.59
		C134.931,109.825,134.175,110.31,133.374,110.31z"/>
	<path fill="#2A5CA7" d="M90.764,66.654c-0.405,0-0.814-0.123-1.169-0.378c-0.896-0.646-1.098-1.896-0.451-2.792
		c1.117-1.548,1.999-6.34,1.73-8.298c-0.15-1.094,0.615-2.103,1.71-2.253c1.085-0.153,2.103,0.615,2.253,1.71
		c0.396,2.885-0.679,8.729-2.449,11.182C91.996,66.366,91.385,66.654,90.764,66.654z"/>
	<path fill="#2A5CA7" d="M81.72,89.787c-0.984,0-1.842-0.727-1.979-1.729c-0.149-1.095,0.617-2.103,1.711-2.252
		c0.48-0.065,1.032-0.125,1.627-0.188c2.171-0.229,5.143-0.545,6.514-1.537c0.896-0.648,2.146-0.446,2.793,0.447
		c0.647,0.895,0.447,2.145-0.447,2.793c-2.234,1.618-5.674,1.982-8.438,2.274c-0.552,0.059-1.062,0.112-1.508,0.173
		C81.901,89.781,81.811,89.787,81.72,89.787z"/>
	<path fill="#2A5CA7" d="M52.676,117.618c-0.204,0-0.411-0.032-0.616-0.098c-3.491-1.129-5.696-2.433-8.542-4.443
		c-0.902-0.638-1.117-1.886-0.479-2.788c0.637-0.902,1.884-1.115,2.787-0.479c2.983,2.107,4.727,3.02,7.465,3.904
		c1.051,0.34,1.627,1.468,1.288,2.519C54.305,117.079,53.521,117.618,52.676,117.618z"/>
	<path fill="#2A5CA7" d="M102.596,30.822c-0.646,0-1.279-0.312-1.665-0.889c-0.613-0.918-0.366-2.161,0.552-2.774
		c0.689-0.46,1.292-1.111,1.93-1.799c1.442-1.558,3.237-3.506,6.542-3.406c1.104,0.031,1.975,0.951,1.943,2.055
		s-0.956,1.95-2.055,1.943c-1.438-0.039-2.178,0.702-3.496,2.125c-0.731,0.79-1.561,1.685-2.642,2.408
		C103.363,30.713,102.978,30.822,102.596,30.822z"/>
	<path fill="#2A5CA7" d="M123.641,20.038c-0.832,0-1.609-0.523-1.893-1.355c-0.827-2.425,0.128-4.741,0.97-6.784
		c0.606-1.471,1.18-2.859,0.85-3.716c-0.396-1.031,0.118-2.188,1.149-2.584c1.029-0.395,2.188,0.117,2.585,1.149
		c0.901,2.344-0.048,4.646-0.886,6.677c-0.629,1.526-1.224,2.968-0.883,3.968c0.356,1.045-0.201,2.182-1.247,2.539
		C124.072,20.003,123.854,20.038,123.641,20.038z"/>
	<path fill="#2A5CA7" d="M128.146,38.82c-0.423,0-0.85-0.134-1.212-0.411c-0.878-0.671-1.046-1.926-0.375-2.804
		c1.18-1.545,2.846-6.203,2.621-7.329c-0.28-1.068,0.359-2.157,1.428-2.437c1.072-0.282,2.164,0.364,2.443,1.432
		c0.755,2.877-1.996,9.039-3.314,10.763C129.344,38.55,128.749,38.82,128.146,38.82z"/>
	<path fill="#2A5CA7" d="M117.729,54.479c-0.717,0-1.409-0.386-1.769-1.063c-0.692-1.305-1.369-2.613-2.043-3.917
		c-0.706-1.366-1.411-2.728-2.132-4.082c-0.519-0.975-0.149-2.186,0.825-2.705c0.979-0.521,2.187-0.149,2.706,0.825
		c0.729,1.368,1.44,2.745,2.153,4.125c0.668,1.292,1.338,2.587,2.023,3.879c0.518,0.976,0.146,2.187-0.829,2.704
		C118.365,54.404,118.045,54.479,117.729,54.479z"/>
	<path fill="#2A5CA7" d="M5.189,134.141c-0.924,0-1.754-0.644-1.955-1.584c-0.229-1.081,0.46-2.143,1.541-2.372
		c1.558-0.331,4.37-2.001,6.23-3.106l0.825-0.488c0.952-0.56,2.178-0.241,2.737,0.712c0.56,0.952,0.241,2.178-0.712,2.737
		l-0.808,0.479c-2.334,1.386-5.239,3.111-7.442,3.579C5.467,134.127,5.327,134.141,5.189,134.141z"/>
	<path fill="#2A5CA7" d="M20.494,154.492c-0.393,0-0.789-0.115-1.136-0.355l-0.77-0.532c-2.58-1.787-5.248-3.636-7.88-5.351
		c-0.925-0.604-1.187-1.843-0.583-2.768c0.603-0.927,1.842-1.188,2.768-0.584c2.679,1.747,5.37,3.61,7.973,5.413l0.769,0.532
		c0.908,0.629,1.135,1.875,0.506,2.783C21.752,154.191,21.128,154.492,20.494,154.492z"/>
	<path fill="#2A5CA7" d="M34.412,133.445c-0.704,0-1.387-0.372-1.752-1.032c-0.535-0.966-0.185-2.184,0.782-2.718
		c0.764-0.422,1.539-0.998,2.359-1.606c1.391-1.032,2.828-2.099,4.557-2.705c1.044-0.363,2.184,0.184,2.549,1.227
		c0.365,1.042-0.184,2.184-1.226,2.549c-1.156,0.405-2.293,1.248-3.496,2.142c-0.89,0.66-1.81,1.343-2.807,1.895
		C35.071,133.365,34.739,133.445,34.412,133.445z"/>
	<path fill="#2A5CA7" d="M41.571,151.715c-0.198,0-0.395-0.002-0.593-0.006c-1.104-0.023-1.981-0.938-1.958-2.042
		s0.94-1.955,2.041-1.958c3.715,0.082,7.382-0.695,10.568-2.236c0.994-0.481,2.19-0.065,2.671,0.93s0.065,2.19-0.93,2.672
		C49.79,150.806,45.722,151.715,41.571,151.715z"/>
	<path fill="#2A5CA7" d="M61.719,134.489c-0.8,0-1.555-0.483-1.864-1.273c-0.401-1.029,0.107-2.189,1.136-2.591
		c1.638-0.639,3.46-2.631,3.267-4.146c-0.14-1.096,0.635-2.097,1.731-2.237c1.097-0.136,2.097,0.636,2.237,1.731
		c0.459,3.602-2.643,7.153-5.78,8.378C62.207,134.444,61.961,134.489,61.719,134.489z"/>
	<path fill="#2A5CA7" d="M79.111,113.096c-0.931,0-1.765-0.652-1.958-1.601c-0.838-4.107,0.241-6.334,2.525-9.006
		c0.718-0.84,1.98-0.938,2.82-0.221c0.84,0.719,0.938,1.98,0.221,2.82c-1.832,2.142-2.14,3.19-1.646,5.607
		c0.221,1.082-0.478,2.139-1.56,2.359C79.378,113.083,79.244,113.096,79.111,113.096z"/>
	<path fill="#2A5CA7" d="M114.332,71.667c-0.381,0-0.767-0.108-1.107-0.336c-1.339-0.893-5.113-0.503-7.367-0.271
		c-2.189,0.225-3.373,0.328-4.289-0.002c-1.039-0.374-1.578-1.52-1.204-2.559c0.363-1.008,1.451-1.546,2.464-1.236
		c0.401,0.047,1.682-0.085,2.619-0.182c3.325-0.342,7.461-0.768,9.996,0.922c0.919,0.613,1.167,1.854,0.555,2.773
		C115.612,71.354,114.979,71.667,114.332,71.667z"/>
	<path fill="#2A5CA7" d="M132.164,72.916c-1.104,0-2-0.896-2-2c0-3.995-0.112-7.592-0.343-10.998
		c-0.075-1.102,0.758-2.056,1.859-2.131c1.142-0.065,2.057,0.759,2.131,1.86c0.237,3.496,0.353,7.182,0.353,11.268
		C134.164,72.021,133.269,72.916,132.164,72.916z"/>
	<path fill="#2A5CA7" d="M102.246,92.745c-0.205,0-0.414-0.032-0.62-0.1c-1.05-0.343-1.624-1.472-1.281-2.521
		c0.469-1.438,1.318-2.582,2.14-3.688c0.722-0.972,1.403-1.889,1.661-2.83c0.291-1.065,1.393-1.694,2.457-1.4
		c1.065,0.291,1.692,1.392,1.4,2.457c-0.456,1.666-1.439,2.99-2.308,4.158c-0.658,0.888-1.281,1.726-1.548,2.543
		C103.872,92.208,103.089,92.745,102.246,92.745z"/>
	<path fill="#2A5CA7" d="M93.546,138.142c-0.241,0-0.486-0.045-0.726-0.138c-1.16-0.452-2.367-0.935-3.591-1.424
		c-2.031-0.812-4.132-1.651-6.119-2.392c-1.035-0.386-1.562-1.537-1.176-2.572c0.385-1.035,1.536-1.562,2.572-1.176
		c2.032,0.757,4.154,1.605,6.207,2.426c1.213,0.484,2.409,0.963,3.56,1.411c1.029,0.401,1.538,1.561,1.137,2.59
		C95.103,137.657,94.347,138.142,93.546,138.142z"/>
	<path fill="#2A5CA7" d="M66.067,151.013c-0.804,0-1.562-0.488-1.867-1.283c-0.396-1.031,0.118-2.188,1.149-2.585
		c1.393-0.535,3.094-1.718,4.92-3.422c0.807-0.754,2.073-0.709,2.827,0.099s0.709,2.073-0.098,2.827
		c-2.229,2.079-4.319,3.502-6.213,4.23C66.548,150.97,66.305,151.013,66.067,151.013z"/>
	<path fill="#2A5CA7" d="M105.573,108.761c-1.742,0-3.622-0.105-5.362-0.884c-1.009-0.451-1.46-1.635-1.01-2.643
		c0.452-1.01,1.638-1.458,2.643-1.01c1.27,0.568,2.913,0.551,4.66,0.528c0.383-0.005,0.762-0.007,1.142-0.007
		c1.104,0.005,1.996,0.904,1.991,2.009s-0.888,1.994-2.009,1.991c-0.355,0.003-0.715,0.003-1.077,0.007
		C106.231,108.757,105.904,108.761,105.573,108.761z"/>
	<path fill="#2A5CA7" d="M101.899,127.879c-0.596,0-1.185-0.265-1.579-0.771c-1.4-1.8-3.331-5.062-4.15-7.562
		c-0.344-1.05,0.229-2.18,1.277-2.523c1.053-0.348,2.18,0.228,2.523,1.277c0.646,1.97,2.322,4.831,3.506,6.352
		c0.679,0.872,0.521,2.129-0.35,2.807C102.762,127.741,102.329,127.879,101.899,127.879z"/>
	<path fill="#2A5CA7" d="M87.288,157.45c-0.859,0-1.653-0.559-1.914-1.425c-0.318-1.058,0.281-2.173,1.339-2.491
		c0.876-0.264,1.711-0.569,2.52-0.857c2.274-0.812,4.627-1.677,7.784-1.677c0.003,0,0.007,0,0.011,0c1.1,0,1.994,0.895,2,1.996
		c0.006,1.104-0.885,2.008-1.989,2.014c-2.476,0.014-4.322,0.675-6.461,1.438c-0.854,0.306-1.738,0.622-2.712,0.915
		C87.673,157.421,87.479,157.45,87.288,157.45z"/>
	<path fill="#2A5CA7" d="M127.468,91.874c-0.881,0-1.688-0.587-1.93-1.478c-0.289-1.066,0.341-2.165,1.407-2.454
		c0.77-0.208,1.532-0.446,2.292-0.683c2.521-0.784,5.142-1.601,8.054-1.471c1.104,0.047,1.961,0.979,1.914,2.082
		c-0.046,1.104-0.987,1.952-2.082,1.914c-2.234-0.089-4.401,0.58-6.697,1.294c-0.808,0.251-1.616,0.503-2.434,0.725
		C127.817,91.851,127.641,91.874,127.468,91.874z"/>
	<path fill="#2A5CA7" d="M149.034,31.866c-0.283,0-0.569-0.06-0.843-0.187c-1.002-0.466-1.436-1.656-0.97-2.657l0.123-0.264
		c0.797-1.708,1.7-3.643,1.454-5.186c-0.175-1.091,0.568-2.117,1.659-2.291c1.077-0.175,2.115,0.568,2.29,1.659
		c0.44,2.755-0.79,5.392-1.778,7.51l-0.121,0.259C150.51,31.438,149.788,31.866,149.034,31.866z"/>
	<path fill="#2A5CA7" d="M140.833,46.162c-0.286,0-0.576-0.014-0.871-0.043c-1.099-0.112-1.899-1.093-1.787-2.192
		c0.111-1.099,1.092-1.9,2.191-1.788c0.976,0.1,2.08-0.153,3.25-0.419c1.897-0.433,4.048-0.924,6.5-0.206
		c1.06,0.31,1.668,1.42,1.358,2.48c-0.311,1.061-1.418,1.672-2.481,1.358c-1.45-0.424-2.859-0.104-4.488,0.268
		C143.331,45.888,142.125,46.162,140.833,46.162z"/>
	<path fill="#2A5CA7" d="M144.433,13.905c-0.086,0-0.172-0.005-0.258-0.016c-1.096-0.141-1.87-1.144-1.729-2.239
		c0.425-3.304,3.956-5.143,6.794-6.621c1.123-0.585,2.284-1.189,2.743-1.64c0.789-0.772,2.055-0.76,2.828,0.03
		c0.773,0.789,0.76,2.055-0.029,2.828c-0.884,0.865-2.187,1.543-3.694,2.329c-1.799,0.936-4.516,2.352-4.675,3.583
		C146.283,13.169,145.423,13.905,144.433,13.905z"/>
	<path fill="#2A5CA7" d="M152.338,68.045c-0.365,0-0.735-0.101-1.067-0.31c-2.952-1.868-4.9-3.845-5.953-6.045
		c-0.478-0.997-0.057-2.191,0.94-2.667c0.994-0.477,2.189-0.057,2.667,0.94c0.709,1.481,2.218,2.959,4.484,4.392
		c0.934,0.591,1.211,1.826,0.621,2.76C153.649,67.716,153.001,68.045,152.338,68.045z"/>
	<path fill="#2A5CA7" d="M149.729,113.789c-0.418,0-0.84-0.131-1.2-0.402c-0.883-0.664-1.061-1.918-0.396-2.8
		c0.545-0.726,1.143-1.46,1.74-2.195c0.746-0.917,1.451-1.783,2.057-2.633c0.641-0.898,1.888-1.11,2.79-0.468
		c0.899,0.642,1.108,1.891,0.468,2.79c-0.68,0.953-1.459,1.91-2.212,2.836c-0.565,0.694-1.131,1.389-1.647,2.074
		C150.936,113.514,150.336,113.789,149.729,113.789z"/>
	<path fill="#2A5CA7" d="M123.115,125.793c-0.401,0-0.807-0.12-1.159-0.371c-1.992-1.421-3.494-3.521-4.228-5.914
		c-0.324-1.056,0.27-2.174,1.326-2.498c1.055-0.321,2.175,0.27,2.498,1.326c0.471,1.533,1.464,2.93,2.726,3.828
		c0.899,0.642,1.108,1.891,0.468,2.79C124.355,125.501,123.74,125.793,123.115,125.793z"/>
	<path fill="#2A5CA7" d="M137.73,135.881c-0.509,0-1.019-0.193-1.408-0.58c-0.784-0.777-0.79-2.044-0.012-2.828l0.641-0.641
		c1.867-1.86,4.191-4.174,4.752-6.435c0.267-1.073,1.357-1.726,2.423-1.46c1.072,0.267,1.726,1.352,1.46,2.423
		c-0.83,3.345-3.593,6.095-5.812,8.306l-0.624,0.623C138.76,135.684,138.245,135.881,137.73,135.881z"/>
	<path fill="#2A5CA7" d="M109.666,143.334c-0.355,0-0.715-0.095-1.04-0.293c-0.942-0.575-1.24-1.806-0.665-2.749
		c1.62-2.655,4.076-3.475,6.243-4.197c0.568-0.19,1.143-0.38,1.703-0.61c1.021-0.423,2.189,0.068,2.61,1.089
		c0.42,1.021-0.067,2.189-1.089,2.61c-0.665,0.274-1.323,0.493-1.959,0.705c-2.006,0.67-3.277,1.147-4.095,2.487
		C110.998,142.993,110.34,143.334,109.666,143.334z"/>
	<path fill="#2A5CA7" d="M123.338,157.334c-0.738,0-1.447-0.409-1.796-1.115c-0.488-0.991-0.081-2.19,0.909-2.679
		c1.58-0.778,3.678-2.831,3.913-4.211c0.187-1.088,1.214-1.822,2.309-1.635c1.089,0.187,1.82,1.22,1.635,2.309
		c-0.531,3.106-3.879,6.036-6.087,7.125C123.936,157.268,123.635,157.334,123.338,157.334z"/>
	<path fill="#2A5CA7" d="M150.668,153c-1.104,0-2-0.896-2-2c0-0.648-0.017-1.302-0.032-1.957c-0.075-3.027-0.153-6.158,1.207-9.194
		c0.452-1.009,1.636-1.459,2.643-1.008c1.008,0.451,1.459,1.635,1.008,2.643c-0.989,2.209-0.926,4.76-0.859,7.46
		c0.018,0.688,0.034,1.375,0.034,2.057C152.668,152.104,151.772,153,150.668,153z"/>
	<path fill="#2A5CA7" d="M148.67,93.334c-0.637,0-1.263-0.304-1.65-0.868c-0.626-0.91-0.395-2.155,0.517-2.78
		c2.518-1.729,5.304-2.593,7.997-3.428l0.54-0.167c1.049-0.327,2.176,0.26,2.504,1.314c0.329,1.054-0.26,2.176-1.314,2.504
		l-0.545,0.17c-2.409,0.746-4.9,1.519-6.918,2.903C149.454,93.221,149.06,93.334,148.67,93.334z"/>
</g>
</svg>
